<svg xmlns="http://www.w3.org/2000/svg" width="43" height="43"><g data-name="Group 59"><path data-name="Subtraction 1" d="M9.295 32.969v-3.59l-.145-.018a209.44 209.44 0 01-4.135-.581 2.022 2.022 0 01-1.4-.729 1.381 1.381 0 01-.25-.973v-.277-14.093c-.013-1.55 1.635-1.636 1.651-1.637l33.688-1.665.1.008a.948.948 0 01.832.932v20.671a.95.95 0 01-.94.831h-.055l-24.974-1.884-4.369 3zM19.98 15.356l2.65 9.709h2.486l2.65-9.709h-2.169L23.872 22.6l-1.723-7.244zm8.994 0v9.709h6.063v-2.05h-4v-1.849h3.355v-2.043h-3.357v-1.724h4v-2.043h-6.061zm-12.5 0v9.709h2.055v-9.709h-2.055zm-7.49 0v9.709h5.749v-2.05h-3.691v-7.659H8.984z"/></g></svg>