<svg xmlns="http://www.w3.org/2000/svg" width="43" height="43"><g data-name="Group 26"><path data-name="Path 27" d="M30.359 26.735v-.1l-.879-.816v-1.343h1.394l.46-1.96-.125-.057-.664.615h-1.049v-5.305h-3.212l-4.4 6.708h4.266l.5-.757h.12v2.1l-.878.816v.1zm-3.6-3.666h-2.652l2.621-3.99h.031z"/><path data-name="Path 28" d="M21.467 26.729v-.1l-.879-.816v-7.38l.636-.591v-.075h-3.992v.075l.636.591v3.92c0 1.067-.32 2.771-1.725 2.771a1.244 1.244 0 01-1-.494 2.849 2.849 0 01-.34-1.752v-4.445l.636-.591v-.075h-3.977v.075l.636.591v5.114a3.24 3.24 0 00.726 2.485 2.918 2.918 0 002.2.908 2.883 2.883 0 001.807-.538 2.533 2.533 0 00.894-1.6h.145v1.934z"/><path data-name="Path 29" d="M40.207 24.336l-.923.855-4-.007v-.071l.612-.568c.978-.931 1.378-1.373 1.932-1.966A3.833 3.833 0 0039.07 20a2.333 2.333 0 00-2.631-2.531 8.51 8.51 0 00-3.465 1l-.6 2.454c.894-.852 1.841-1.646 2.736-1.646.424 0 1.02.078 1.02.891 0 .73-.59 1.567-1.456 2.738l-.846 1.122-2.116 2.7h7.887l.71-2.309z"/><path data-name="Path 30" d="M2.93 17.764v.075l.636.591v7.386l-.878.816v.1h7.586l.7-2.279-.106-.091-.911.84h-4.2v-.078l.662-.615v-6.082l.636-.591v-.075z"/></g></svg>