<svg xmlns="http://www.w3.org/2000/svg" width="1920" height="480"><path data-name="Union 1" d="M1167.455 350.251V158.368h61.1v143.891c0 83.724 1.608 113.766 37.482 113.766 79.786 0 118.473-197.2 118.473-251v-6.653h61.1V470.5h-61.1V231.255C1377.07 272.218 1345.216 480 1250.457 480c-69.738 0-83.002-65.523-83.002-129.749zm-931.411 80.921c-26.328-29.331-40.8-70.795-40.9-116.695.1-45.9 14.571-87.364 40.9-116.695 28.538-31.925 69.637-48.828 118.875-48.828 49.138 0 90.237 16.9 118.876 48.828 26.227 29.331 40.8 70.795 40.9 116.695-.1 45.9-14.671 87.364-40.9 116.695-28.639 31.841-69.738 48.744-118.876 48.828-49.239-.084-90.337-16.987-118.875-48.828zm54.062-229.331c-14.169 23.849-21.3 60.753-21.806 112.636.5 51.883 7.637 88.661 21.806 112.552 13.967 23.557 35.171 37.029 64.814 37.029s50.846-13.473 64.714-37.029c14.169-23.891 21.3-60.669 21.906-112.636-.6-51.8-7.738-88.7-21.906-112.552-13.867-23.556-35.07-37.029-64.714-37.029s-50.847 13.473-64.815 37.029zM1647.48 396.9c0-54.435 46.324-69.707 99.884-92.762 36.275-15.565 77.173-33.264 111.54-64.1-.4-54.268-20.1-76.946-65.416-76.946-41.7 0-51.952 31.046-61.2 59.665-6.934 21.339-22.409 34.1-41.5 34.1h-35.07S1681.344 151.3 1793.387 151.3c56.574 0 126.613 16.36 126.613 93.305V470.5h-61.1v-26.985c-22.509 14.058-62.2 34.059-104.908 34.059-96.162-.001-106.512-56.403-106.512-80.674zm140.381-76.527c-39.693 31-65.82 46.778-65.82 82.762 0 84.561 97.472 60.711 136.863 28.828v-172.8c-25.625 25.691-49.64 44.477-71.043 61.214zM848.108 387.2l41.1.084a43.678 43.678 0 0138.892 23.888c17.283 33.515 38.587 51.046 66.924 51.046 33.663 0 46.124-16.192 51.45-24.937 17.585-29.163-13.868-59.707-35.171-73.264-3.316-2.008-95.261-55.732-100.085-58.954-30.749-20.418-46.425-44.059-46.425-70.377 0-54.812 57.277-83.389 113.952-83.389 104.305 0 132.643 82.8 132.643 82.8H1073.5a37.467 37.467 0 01-33.462-20.837c-15.274-30.335-34.668-46.318-61.1-46.318-37.08 0-49.238 18.033-53.76 27.49-11.355 24.393 5.929 47.866 25.825 61.674 11.456 7.95 99.281 58.075 105.21 61.8 19.9 12.636 44.817 33.808 50.746 62.929 3.215 15.774 1 41.464-15.676 61.883-18.892 23.138-51.249 34.853-96.267 34.853-121.183.002-146.908-90.371-146.908-90.371zm-302.867 0l41.1.084a43.642 43.642 0 0138.789 23.891c17.284 33.515 38.587 51.046 66.925 51.046 33.762 0 46.223-16.192 51.448-24.937 17.585-29.163-13.766-59.707-35.17-73.264-3.316-2.008-95.262-55.732-100.085-58.954-30.748-20.422-46.326-44.066-46.326-70.38 0-54.812 57.277-83.389 113.852-83.389 104.4 0 132.642 82.8 132.642 82.8h-37.884a37.206 37.206 0 01-33.361-20.837c-15.374-30.335-34.769-46.318-61.2-46.318-36.979 0-49.238 18.033-53.659 27.49-11.355 24.393 5.828 47.866 25.825 61.674 11.355 7.95 99.281 58.075 105.21 61.8 19.8 12.636 44.817 33.808 50.645 62.929 3.216 15.774 1.106 41.464-15.575 61.883-18.891 23.138-51.349 34.853-96.366 34.853-121.186.002-146.81-90.371-146.81-90.371zM38.486 472.929V167.155H0v-18.912h38.486v-7.2c0-104.268 69.638-129.707 140.079-140.92L179.47 0v10.084l-.6.209c-68.13 20.251-79.283 57.992-79.283 116.192v21.757h88.428v18.912H99.583v305.775zm1482.079-2.429V63.766h61.1V470.5z"/></svg>