<svg xmlns="http://www.w3.org/2000/svg" viewBox="0 0 96 24"><path data-name="Union 1" d="M58.373 17.513V7.918h3.055v7.195c0 4.186.08 5.688 1.874 5.688 3.989 0 5.924-9.86 5.924-12.55v-.333h3.054v15.607h-3.055V11.563C68.854 13.611 67.261 24 62.523 24c-3.487 0-4.15-3.276-4.15-6.487zM11.8 21.559a8.7 8.7 0 01-2.045-5.835A8.7 8.7 0 0111.8 9.889a7.7 7.7 0 015.944-2.441 7.715 7.715 0 015.946 2.441 8.724 8.724 0 012.045 5.835 8.724 8.724 0 01-2.045 5.835A7.744 7.744 0 0117.746 24a7.729 7.729 0 01-5.946-2.441zm2.7-11.467a11.577 11.577 0 00-1.09 5.632 11.564 11.564 0 001.09 5.628 3.553 3.553 0 003.246 1.848 3.54 3.54 0 003.236-1.851 11.622 11.622 0 001.1-5.632 11.62 11.62 0 00-1.1-5.628 3.54 3.54 0 00-3.236-1.851 3.553 3.553 0 00-3.241 1.854zm67.869 9.753c0-2.722 2.316-3.485 4.994-4.638A19.546 19.546 0 0092.945 12c-.02-2.713-1-3.847-3.271-3.847-2.085 0-2.6 1.552-3.06 2.983a2.208 2.208 0 01-2.075 1.705h-1.753a7.108 7.108 0 016.883-5.278C92.5 7.565 96 8.383 96 12.23v11.295h-3.055v-1.349a10.422 10.422 0 01-5.245 1.7c-4.808.003-5.326-2.817-5.326-4.031zm7.019-3.826c-1.985 1.55-3.291 2.339-3.291 4.138 0 4.228 4.874 3.036 6.843 1.441v-8.64a36.239 36.239 0 01-3.547 3.061zM42.405 19.36h2.055a2.184 2.184 0 011.94 1.199c.864 1.676 1.929 2.552 3.346 2.552a2.7 2.7 0 002.573-1.247c.879-1.458-.693-2.985-1.759-3.663-.166-.1-4.763-2.787-5-2.948-1.537-1.021-2.321-2.2-2.321-3.519 0-2.741 2.864-4.169 5.7-4.169a6.773 6.773 0 016.632 4.14h-1.896A1.873 1.873 0 0152 10.663c-.764-1.517-1.733-2.316-3.055-2.316-1.854 0-2.462.9-2.688 1.374-.568 1.22.3 2.393 1.291 3.084.573.4 4.964 2.9 5.26 3.09a5.325 5.325 0 012.537 3.146 3.872 3.872 0 01-.784 3.094c-.945 1.157-2.562 1.743-4.813 1.743-6.056.001-7.343-4.518-7.343-4.518zm-15.143 0h2.055a2.182 2.182 0 011.939 1.195c.864 1.676 1.929 2.552 3.346 2.552a2.683 2.683 0 002.572-1.247c.879-1.458-.688-2.985-1.758-3.663-.166-.1-4.763-2.787-5-2.948-1.537-1.021-2.316-2.2-2.316-3.519 0-2.741 2.864-4.169 5.693-4.169a6.766 6.766 0 016.632 4.14h-1.898a1.86 1.86 0 01-1.668-1.042C36.09 9.146 35.12 8.347 33.8 8.347c-1.849 0-2.462.9-2.683 1.374-.568 1.22.291 2.393 1.291 3.084.568.4 4.964 2.9 5.26 3.09a5.318 5.318 0 012.532 3.147 3.866 3.866 0 01-.779 3.094c-.945 1.157-2.567 1.743-4.818 1.743-6.06 0-7.341-4.519-7.341-4.519zM1.924 23.646V8.358H0v-.946h1.924v-.36c0-5.213 3.482-6.485 7-7.046L8.973 0v.5l-.03.01c-3.406 1.013-3.964 2.9-3.964 5.81v1.092H9.4v.946H4.979v15.288zm74.1-.121V3.188h3.055v20.337z" fill="#fff"/></svg>